<svg aria-hidden="true" style="position:absolute;width:0;height:0" xmlns="http://www.w3.org/2000/svg" overflow="hidden">
    <defs>
        <symbol id="dots1" viewBox="0 0 12 12" fill="none">
          <circle cx="6" cy="6" r="6"/>
        </symbol>
        <symbol id="dots2" viewBox="0 0 32 4" fill="none">
          <circle cx="16" cy="2" r="2" fill="#C7133E"/>
          <circle cx="2" cy="2" r="2" fill="#C7133E"/>
          <circle cx="30" cy="2" r="2" fill="#C7133E"/>
        </symbol>
        <symbol id="house" viewBox="0 0 12 12" fill="none">
          <path d="M11.8497 6.28727C12.0672 6.06411 12.0462 5.72207 11.8028 5.5235L6.43981 1.14624C6.19638 0.947669 5.80611 0.951828 5.56781 1.15561L0.186634 5.75688C-0.0516656 5.96066 -0.0633615 6.30227 0.160739 6.51955L0.295652 6.65062C0.519479 6.86791 0.88127 6.89381 1.10322 6.70831L1.50538 6.37236V11.2907C1.50538 11.5924 1.7675 11.8367 2.09076 11.8367H4.18836C4.51162 11.8367 4.77374 11.5924 4.77374 11.2907V7.84984H7.44925V11.2907C7.4446 11.5922 7.6759 11.8365 7.99916 11.8365H10.2221C10.5453 11.8365 10.8075 11.5922 10.8075 11.2905V6.44161C10.8075 6.44161 10.9186 6.5324 11.0556 6.64474C11.1924 6.75687 11.4797 6.66697 11.6972 6.44358L11.8497 6.28727Z" fill="#D31342"/>
        </symbol>
        <symbol id="quote" viewBox="0 0 54 40" fill="none">
        <path d="M40.0179 2.59234e-06C42.4286 2.80309e-06 44.7054 0.650413 46.8482 1.95122C48.9911 3.25204 50.7321 5.12196 52.0714 7.56098C53.3571 10 54 12.8726 54 16.1789C54 19.4851 53.1964 22.71 51.5893 25.8537C51.0536 26.9919 50.0893 28.4553 48.6964 30.2439C47.25 32.0325 45.9107 33.5772 44.6786 34.878L39.6161 40L36 33.9837C38.5179 32.4119 40.7411 30.4607 42.6696 28.1301C44.5982 25.8537 45.5625 23.7669 45.5625 21.8699C45.5625 20.8943 45.3482 20.1084 44.9196 19.5122C43.0446 20.8672 40.9554 21.5447 38.6518 21.5447C36.9911 21.5447 35.4107 21.0298 33.9107 20C32.3571 19.0244 31.125 17.7236 30.2143 16.0976C29.25 14.5257 28.7679 12.8997 28.7679 11.2195C28.7679 9.32249 29.3304 7.50678 30.4554 5.77236C31.5268 4.03794 32.9464 2.62873 34.7143 1.54472C36.4286 0.51491 38.1964 2.43311e-06 40.0179 2.59234e-06ZM11.1696 7.03482e-08C13.5804 2.81099e-07 15.8571 0.65041 18 1.95122C20.1429 3.25203 21.8839 5.12195 23.2232 7.56098C24.5089 10 25.1518 12.8726 25.1518 16.1789C25.1518 18.5095 24.8571 20.5962 24.2679 22.439C23.6786 24.336 22.6607 26.3144 21.2143 28.374C19.8214 30.3252 18.5089 31.9512 17.2768 33.252C16.0446 34.607 13.9018 36.8564 10.8482 40L7.23214 33.9837C9.75 32.4119 11.9732 30.4607 13.9018 28.1301C15.8304 25.8537 16.7946 23.7669 16.7946 21.8699C16.7946 20.8943 16.5804 20.1084 16.1518 19.5122C14.2768 20.8672 12.1875 21.5447 9.88393 21.5447C8.22321 21.5447 6.64285 21.0298 5.14285 20C3.58928 19.0244 2.35714 17.7236 1.44643 16.0976C0.482142 14.5257 -1.44552e-06 12.8997 -1.29863e-06 11.2195C-1.13278e-06 9.32249 0.535712 7.50677 1.60714 5.77236C2.67857 4.03794 4.09821 2.62873 5.86607 1.54472C7.58036 0.514908 9.34821 -8.88862e-08 11.1696 7.03482e-08Z" fill="#E1E1E1"/>
        </symbol>
        <symbol id="close" viewBox="0 0 32 32">
        <path d="M32 3.224l-3.224-3.224-12.776 12.776-12.776-12.776-3.224 3.224 12.776 12.776-12.776 12.776 3.224 3.224 12.776-12.776 12.776 12.776 3.224-3.224-12.776-12.776 12.776-12.776z"></path>
        </symbol>
        <symbol id="subscription" viewBox="0 0 32 32">
        <path d="M32 2.667l-32 15 10.227 3.156 15.773-12.323-11.997 13.488 0.009 0.004-0.012-0.004v7.345l5.735-5.576 7.267 2.243 4.999-23.333z"></path>
        </symbol>
        <symbol id="person" viewBox="0 0 32 32">
        <path d="M16 16c2.946 0 5.333-2.388 5.333-5.333s-2.388-5.333-5.333-5.333v0c-2.946 0-5.333 2.388-5.333 5.333s2.388 5.333 5.333 5.333v0zM16 18.667c-3.561 0-10.667 1.787-10.667 5.333v1.333c0 0.732 0.599 1.333 1.333 1.333h18.667c0.732 0 1.333-0.601 1.333-1.333v-1.333c0-3.547-7.108-5.333-10.667-5.333z"></path>
        </symbol>
        <symbol id="phone" viewBox="0 0 24 32">
        <path d="M19.635 18.487l-2.451-0.28c-0.067-0.008-0.145-0.013-0.223-0.013-0.531 0-1.012 0.215-1.36 0.564l-1.775 1.775c-2.752-1.42-4.94-3.607-6.322-6.278l-0.038-0.081 1.787-1.785c0.347-0.347 0.562-0.827 0.562-1.358 0-0.079-0.005-0.156-0.014-0.233l0.001 0.009-0.28-2.432c-0.115-0.966-0.93-1.708-1.918-1.708-0.001 0-0.002 0-0.002 0h-1.669c-1.091 0-1.997 0.907-1.929 1.997 0.511 8.24 7.101 14.821 15.332 15.333 1.091 0.067 1.997-0.84 1.997-1.931v-1.669c0-0.003 0-0.007 0-0.011 0-0.981-0.739-1.789-1.69-1.899l-0.009-0.001z"></path>
        </symbol>
        <symbol id="mail" viewBox="0 0 24 32">
        <path d="M20 8h-16c-1.1 0-1.989 0.9-1.989 2l-0.011 12c0 1.1 0.9 2 2 2h16c1.1 0 2-0.9 2-2v-12c0-1.1-0.9-2-2-2zM19.6 12.251l-7.069 4.419c-0.151 0.094-0.334 0.15-0.531 0.15s-0.38-0.056-0.535-0.153l0.004 0.002-7.069-4.419c-0.252-0.15-0.418-0.422-0.418-0.731 0-0.469 0.38-0.849 0.849-0.849 0.174 0 0.337 0.053 0.471 0.143l6.697 4.187 6.7-4.191c0.132-0.088 0.294-0.141 0.468-0.141 0.469 0 0.849 0.38 0.849 0.849 0 0.31-0.166 0.581-0.414 0.729l-0.004 0.002z"></path>
        </symbol>
        <symbol id="checkbox" viewBox="0 0 32 32">
        <path d="m4.817 15.389-.169-.162-2.544 2.41 8.962 8.55L29.895 8.225l-2.527-2.411L11.066 21.35l-6.249-5.962z"/>

        <symbol id="icon-right-arrow" viewBox="0 0 19 32"><path d="M1.056 0.825c1.312-1.184 3.335-1.081 4.52 0.231l11.553 12.8c1.099 1.218 1.099 3.070 0 4.288l-11.553 12.8c-1.184 1.312-3.208 1.416-4.52 0.231s-1.416-3.208-0.231-4.52l9.618-10.656-9.618-10.656c-1.184-1.312-1.081-3.335 0.231-4.52z"></path>

        </symbol>
    </defs>
</svg>
